<svg xmlns="http://www.w3.org/2000/svg" width="259" height="194" viewBox="0 0 259 194" fill="none">
  <rect width="259" height="194" fill="#F8F3FF"/>
  <g transform="translate(0 2)">
    <ellipse cx="129.5" cy="126" rx="84" ry="58" fill="#FFE1C7"/>
    <ellipse cx="129.5" cy="134" rx="70" ry="44" fill="#FFF2E6"/>
    <path d="M67 80 L94 40 L120 84 Z" fill="#FFE1C7" stroke="#F3C7A6" stroke-width="4" stroke-linejoin="round"/>
    <path d="M139 84 L165 40 L192 80 Z" fill="#FFE1C7" stroke="#F3C7A6" stroke-width="4" stroke-linejoin="round"/>
    <path d="M82 74 L96 50 L110 76 Z" fill="#FFB6C1"/>
    <path d="M149 76 L163 50 L177 74 Z" fill="#FFB6C1"/>
    <circle cx="101" cy="118" r="10" fill="#3B2F2F"/>
    <circle cx="158" cy="118" r="10" fill="#3B2F2F"/>
    <circle cx="98" cy="114" r="3" fill="#FFFFFF"/>
    <circle cx="155" cy="114" r="3" fill="#FFFFFF"/>
    <path d="M120 132 L139 132 L129.5 144 Z" fill="#FF8FA3"/>
    <path d="M129.5 144 C124 144 119 148 117 152" stroke="#3B2F2F" stroke-width="3" stroke-linecap="round"/>
    <path d="M129.5 144 C135 144 140 148 142 152" stroke="#3B2F2F" stroke-width="3" stroke-linecap="round"/>
    <path d="M52 126 C74 118 94 118 116 126" stroke="#D7A78F" stroke-width="3" stroke-linecap="round"/>
    <path d="M52 138 C74 132 94 132 116 138" stroke="#D7A78F" stroke-width="3" stroke-linecap="round"/>
    <path d="M143 126 C165 118 185 118 207 126" stroke="#D7A78F" stroke-width="3" stroke-linecap="round"/>
    <path d="M143 138 C165 132 185 132 207 138" stroke="#D7A78F" stroke-width="3" stroke-linecap="round"/>
    <path d="M90 160 C110 174 149 174 169 160" stroke="#F3C7A6" stroke-width="8" stroke-linecap="round"/>
    <circle cx="82" cy="158" r="6" fill="#FFD1DC"/>
    <circle cx="177" cy="158" r="6" fill="#FFD1DC"/>
    <path d="M68 96 C58 104 52 114 50 126" stroke="#F3C7A6" stroke-width="6" stroke-linecap="round"/>
    <path d="M190 96 C200 104 206 114 208 126" stroke="#F3C7A6" stroke-width="6" stroke-linecap="round"/>
  </g>
  <g opacity="0.5">
    <circle cx="38" cy="40" r="6" fill="#C7B3FF"/>
    <circle cx="226" cy="54" r="5" fill="#C7B3FF"/>
    <circle cx="214" cy="154" r="4" fill="#C7B3FF"/>
  </g>
</svg>
