<svg xmlns="http://www.w3.org/2000/svg" width="259" height="194" viewBox="0 0 259 194" fill="none">
  <defs>
    <linearGradient id="skyGradient" x1="0" y1="0" x2="0" y2="1">
      <stop offset="0%" stop-color="#0B1026"/>
      <stop offset="45%" stop-color="#151A3B"/>
      <stop offset="100%" stop-color="#241B46"/>
    </linearGradient>
    <radialGradient id="moonGlow" cx="0" cy="0" r="1" gradientUnits="userSpaceOnUse" gradientTransform="translate(202 52) rotate(90) scale(38 38)">
      <stop offset="0%" stop-color="#FFF6D6" stop-opacity="0.9"/>
      <stop offset="60%" stop-color="#FFF6D6" stop-opacity="0.2"/>
      <stop offset="100%" stop-color="#FFF6D6" stop-opacity="0"/>
    </radialGradient>
  </defs>
  <rect width="259" height="194" fill="url(#skyGradient)"/>
  <rect width="259" height="194" fill="url(#moonGlow)"/>
  <circle cx="202" cy="52" r="16" fill="#FFF6D6"/>
  <g fill="#F4EEFF">
    <circle cx="28" cy="36" r="1.6"/>
    <circle cx="58" cy="24" r="1.2"/>
    <circle cx="92" cy="38" r="1.4"/>
    <circle cx="126" cy="22" r="1.1"/>
    <circle cx="156" cy="30" r="1.3"/>
    <circle cx="182" cy="18" r="1"/>
    <circle cx="218" cy="32" r="1.5"/>
    <circle cx="236" cy="64" r="1.1"/>
    <circle cx="210" cy="88" r="1.4"/>
    <circle cx="182" cy="74" r="1"/>
    <circle cx="152" cy="68" r="1.2"/>
    <circle cx="120" cy="74" r="1"/>
    <circle cx="88" cy="66" r="1.5"/>
    <circle cx="52" cy="70" r="1.1"/>
    <circle cx="24" cy="88" r="1.3"/>
    <circle cx="46" cy="116" r="1"/>
    <circle cx="76" cy="104" r="1.4"/>
    <circle cx="110" cy="112" r="1.2"/>
    <circle cx="144" cy="104" r="1"/>
    <circle cx="176" cy="110" r="1.3"/>
    <circle cx="214" cy="120" r="1"/>
    <circle cx="234" cy="102" r="1.2"/>
  </g>
  <g fill="#B8C3FF" opacity="0.7">
    <circle cx="36" cy="56" r="2"/>
    <circle cx="98" cy="52" r="2.4"/>
    <circle cx="170" cy="48" r="2.2"/>
    <circle cx="232" cy="140" r="2"/>
    <circle cx="70" cy="142" r="2.3"/>
    <circle cx="136" cy="146" r="2.1"/>
  </g>
  <g stroke="#FFDFA3" stroke-width="1.5" stroke-linecap="round" opacity="0.9">
    <path d="M42 30 L42 24"/>
    <path d="M42 30 L36 30"/>
    <path d="M42 30 L48 30"/>
    <path d="M42 30 L42 36"/>
    <path d="M198 102 L198 96"/>
    <path d="M198 102 L192 102"/>
    <path d="M198 102 L204 102"/>
    <path d="M198 102 L198 108"/>
  </g>
  <path d="M0 148 C32 132 72 136 104 150 C136 164 176 168 208 156 C230 148 246 146 259 148 V194 H0 Z" fill="#0C0F24" opacity="0.9"/>
  <path d="M0 162 C30 150 66 152 96 164 C130 178 174 180 206 168 C228 160 246 158 259 160 V194 H0 Z" fill="#131934"/>
</svg>
