<svg xmlns="http://www.w3.org/2000/svg" width="1200" height="1200" viewBox="0 0 1200 1200">
  <defs>
    <linearGradient id="bg" x1="0" y1="0" x2="1" y2="1">
      <stop offset="0%" stop-color="#ffe6e0"/>
      <stop offset="55%" stop-color="#fff4f2"/>
      <stop offset="100%" stop-color="#fde2e8"/>
    </linearGradient>
    <linearGradient id="cheek" x1="0" y1="0" x2="1" y2="1">
      <stop offset="0%" stop-color="#fcb3c2"/>
      <stop offset="100%" stop-color="#f78fb0"/>
    </linearGradient>
    <filter id="soft" x="-20%" y="-20%" width="140%" height="140%">
      <feGaussianBlur stdDeviation="18"/>
    </filter>
  </defs>
  <rect width="1200" height="1200" fill="url(#bg)"/>
  <g opacity="0.18" filter="url(#soft)">
    <circle cx="260" cy="260" r="160" fill="#ffd1dc"/>
    <circle cx="980" cy="220" r="140" fill="#ffd5e5"/>
    <circle cx="900" cy="980" r="180" fill="#ffe0ec"/>
  </g>
  <g transform="translate(260 210)">
    <path d="M140 90 L220 0 L300 120 Z" fill="#f5c4a9"/>
    <path d="M500 90 L420 0 L340 120 Z" fill="#f5c4a9"/>
    <ellipse cx="320" cy="320" rx="260" ry="240" fill="#f8d9c8"/>
    <ellipse cx="320" cy="340" rx="220" ry="190" fill="#fae7dd"/>
    <ellipse cx="240" cy="300" rx="40" ry="50" fill="#111827"/>
    <ellipse cx="400" cy="300" rx="40" ry="50" fill="#111827"/>
    <circle cx="235" cy="290" r="12" fill="#ffffff"/>
    <circle cx="395" cy="290" r="12" fill="#ffffff"/>
    <path d="M300 340 C310 360 330 360 340 340" stroke="#111827" stroke-width="12" fill="none" stroke-linecap="round"/>
    <path d="M320 350 C300 390 260 400 240 385" stroke="#111827" stroke-width="10" fill="none" stroke-linecap="round"/>
    <path d="M320 350 C340 390 380 400 400 385" stroke="#111827" stroke-width="10" fill="none" stroke-linecap="round"/>
    <ellipse cx="210" cy="360" rx="40" ry="26" fill="url(#cheek)" opacity="0.8"/>
    <ellipse cx="430" cy="360" rx="40" ry="26" fill="url(#cheek)" opacity="0.8"/>
  </g>
  <text x="600" y="880" text-anchor="middle" font-size="84" font-family="'Segoe UI', 'Noto Sans TC', sans-serif" fill="#1f2937" font-weight="700">今天的我真可愛</text>
  <circle cx="600" cy="120" r="24" fill="#f472b6"/>
  <circle cx="620" cy="100" r="12" fill="#facc15"/>
</svg>
